<?xml version="1.0" encoding="UTF-8"?>
<!DOCTYPE svg PUBLIC "-//W3C//DTD SVG 1.1//EN" "http://www.w3.org/Graphics/SVG/1.1/DTD/svg11.dtd">
<!-- Creator: CorelDRAW -->
<svg xmlns="http://www.w3.org/2000/svg" xml:space="preserve" width="2048px" height="2048px" style="shape-rendering:geometricPrecision; text-rendering:geometricPrecision; image-rendering:optimizeQuality; fill-rule:evenodd; clip-rule:evenodd"
viewBox="0 0 2048 2048"
 xmlns:xlink="http://www.w3.org/1999/xlink">
 <defs>
  <style type="text/css">
   <![CDATA[
    .fil2 {fill:none}
    .fil1 {fill:#6A1B9A}
    .fil0 {fill:#8E24AA}
    .fil6 {fill:#E65100;fill-rule:nonzero}
    .fil3 {fill:#F57C00;fill-rule:nonzero}
    .fil5 {fill:#FFA726;fill-rule:nonzero}
    .fil4 {fill:#FFB74D;fill-rule:nonzero}
   ]]>
  </style>
   <clipPath id="id0">
    <path d="M1024 0c565.539,0 1024,458.461 1024,1024 0,565.539 -458.461,1024 -1024,1024 -565.539,0 -1024,-458.461 -1024,-1024 0,-565.539 458.461,-1024 1024,-1024z"/>
   </clipPath>
 </defs>
 <g id="Layer_x0020_1">
  <metadata id="CorelCorpID_0Corel-Layer"/>
  <path class="fil0" d="M1024 0c565.539,0 1024,458.461 1024,1024 0,565.539 -458.461,1024 -1024,1024 -565.539,0 -1024,-458.461 -1024,-1024 0,-565.539 458.461,-1024 1024,-1024z"/>
  <g style="clip-path:url(#id0)">
   <g id="_461739512">
    <g>
     <polygon id="_4613377281" class="fil1" points="1458.58,692.127 2594.46,1828.01 2594.46,1850.87 1458.58,714.987 "/>
     <polygon id="_461336648" class="fil1" points="1458.58,714.987 2594.46,1850.87 2594.46,2067.92 1458.58,932.038 "/>
     <polygon id="_461346944" class="fil1" points="1584,1019.58 2719.88,2155.46 2693.88,2192.68 1558,1056.8 "/>
     <polygon id="_461342912" class="fil1" points="1558,1056.8 2693.88,2192.68 2615.72,2138.13 1479.84,1002.24 "/>
     <polygon id="_461339504" class="fil1" points="1479.84,1002.24 2615.72,2138.13 2615.72,2532.38 1479.84,1396.49 "/>
     <polygon id="_461346368" class="fil1" points="1479.84,1396.49 2615.72,2532.38 2615.72,2555.17 1479.84,1419.29 "/>
     <polygon id="_461328344" class="fil1" points="1479.84,1419.29 2615.72,2555.17 2592.93,2555.17 1457.05,1419.29 "/>
     <polygon id="_461328704" class="fil1" points="1115.17,1168.58 2251.05,2304.46 2160.21,2304.46 1024.33,1168.58 "/>
     <polygon id="_461353088" class="fil1" points="568.167,1002.24 1704.05,2138.12 1625.88,2192.68 489.997,1056.8 "/>
     <polygon id="_461328920" class="fil1" points="1024.33,1168.58 2160.21,2304.46 2159.89,2304.46 1024,1168.58 "/>
     <polygon id="_461339216" class="fil1" points="1024,1168.58 2159.89,2304.46 2068.72,2304.46 932.839,1168.58 "/>
     <polygon id="_461345960" class="fil1" points="932.839,1168.58 2068.72,2304.46 2068.72,2532.38 932.839,1396.49 "/>
     <polygon id="_461339432" class="fil1" points="1137.97,1419.29 2273.85,2555.17 2251.05,2555.17 1115.17,1419.29 "/>
     <polygon id="_461331752" class="fil1" points="932.839,1396.49 2068.72,2532.38 2068.72,2555.08 932.839,1419.2 "/>
     <polygon id="_461328008" class="fil1" points="932.839,1419.2 2068.72,2555.08 2045.93,2555.08 910.046,1419.2 "/>
     <polygon id="_461332400" class="fil1" points="910.046,1419.2 2045.93,2555.08 1726.84,2555.08 590.96,1419.2 "/>
     <polygon id="_461333552" class="fil1" points="590.96,1419.2 1726.84,2555.08 1704.05,2555.08 568.167,1419.2 "/>
     <polygon id="_461342864" class="fil1" points="1457.05,1419.29 2592.93,2555.17 2273.85,2555.17 1137.97,1419.29 "/>
    </g>
    <polygon id="_461745320" class="fil1" points="1274.72,692.127 1434.26,692.127 1458.58,692.127 1458.58,714.987 1458.58,932.038 1584,1019.58 1558,1056.8 1479.84,1002.24 1479.84,1396.49 1479.84,1419.29 1457.05,1419.29 1137.97,1419.29 1115.17,1419.29 1115.17,1396.49 1115.17,1168.58 1024.33,1168.58 1024,1168.58 932.839,1168.58 932.839,1396.49 932.839,1419.2 910.046,1419.2 590.96,1419.2 568.167,1419.2 568.167,1396.49 568.167,1002.24 489.997,1056.8 464,1019.58 1011.01,637.787 1024,628.714 1037,637.787 1250.4,786.733 1250.4,714.987 1250.4,692.127 "/>
   </g>
  </g>
  <path class="fil2" d="M1024 0c565.539,0 1024,458.461 1024,1024 0,565.539 -458.461,1024 -1024,1024 -565.539,0 -1024,-458.461 -1024,-1024 0,-565.539 458.461,-1024 1024,-1024z"/>
  <polygon class="fil3" points="1250.4,836.454 1250.4,714.987 1250.4,692.127 1274.72,692.127 1434.26,692.127 1458.58,692.127 1458.58,714.987 1458.58,947.97 1409.94,947.97 1299.03,836.454 "/>
  <polygon class="fil4" points="1024,1168.58 932.839,1168.58 932.839,1396.49 932.839,1419.2 910.046,1419.2 590.96,1419.2 568.167,1419.2 568.167,1396.49 568.167,986.241 568.167,974.154 578.318,967.366 1011.37,677.789 1024,669.342 "/>
  <polygon class="fil5" points="1457.05,1419.29 1137.97,1419.29 1115.17,1419.29 1115.17,1396.49 1115.17,1168.58 1024.33,1168.58 1024,1168.58 1024,669.342 1024.01,669.336 1024.75,669.827 1036.66,677.789 1469.69,967.366 1479.84,974.154 1479.84,986.241 1479.84,1396.49 1479.84,1419.29 "/>
  <polygon class="fil6" points="1558,1056.8 1024,684.075 489.997,1056.8 464,1019.58 1011.01,637.787 1024,628.714 1037,637.787 1584,1019.58 "/>
 </g>
</svg>
